<svg xmlns="http://www.w3.org/2000/svg" xmlns:xlink="http://www.w3.org/1999/xlink" width="500" zoomAndPan="magnify" viewBox="0 0 375 374.999991" height="500" preserveAspectRatio="xMidYMid meet" version="1.0"><defs><g/><clipPath id="id1"><path d="M 189.875 165.363281 L 252.875 165.363281 L 252.875 228.363281 L 189.875 228.363281 Z M 189.875 165.363281 " clip-rule="nonzero"/></clipPath><clipPath id="id2"><path d="M 148.269531 180.242188 L 183.519531 180.242188 L 183.519531 215.492188 L 148.269531 215.492188 Z M 148.269531 180.242188 " clip-rule="nonzero"/></clipPath></defs><g fill="#ff6950" fill-opacity="1"><g transform="translate(101.05384, 80.325403)"><g/></g></g><g fill="#6a9ae8" fill-opacity="1"><g transform="translate(74.907296, 104.244911)"><g><path d="M 29.042969 14.660156 C 10.191406 7.398438 -7.585938 16.085938 -13.988281 32.699219 C -17.96875 43.03125 -18.582031 54.171875 -15.253906 58.855469 L 11.023438 68.980469 L 13.027344 63.785156 L -7.089844 56.03125 C -15.003906 52.984375 -15.339844 39.808594 -12.777344 33.164062 C -7.402344 19.210938 9.054688 12.507812 27.179688 19.492188 C 45.300781 26.476562 53.007812 42.488281 47.632812 56.441406 C 43.652344 66.773438 33.125 72.847656 26.007812 71.144531 C 26.007812 71.144531 24.839844 73.816406 28.285156 75.144531 C 36.078125 78.148438 44.625 67.84375 48.839844 56.910156 C 55.242188 40.296875 47.890625 21.921875 29.042969 14.660156 Z M 29.042969 14.660156 "/></g></g></g><g fill="#6a9ae8" fill-opacity="1"><g transform="translate(51.490736, 184.111664)"><g><path d="M 1.039062 5.074219 L 10.03125 49.027344 L 15.675781 47.875 C 12.195312 41.84375 6.382812 24.730469 4.019531 13.1875 C 3.550781 10.902344 4.21875 9.644531 7.644531 8.941406 L 32.394531 3.945312 C 34.296875 3.554688 35.445312 4.644531 35.832031 6.546875 C 37.273438 13.585938 38.371094 28.957031 38.0625 36.816406 L 43.390625 35.726562 L 37.34375 6.171875 C 36.953125 4.269531 37.960938 2.738281 39.867188 2.351562 L 59.90625 -1.75 C 63.332031 -2.449219 64.441406 -1.554688 64.910156 0.730469 C 67.269531 12.273438 68.644531 30.296875 67.8125 37.207031 L 73.457031 36.050781 L 64.464844 -7.902344 Z M 1.039062 5.074219 "/></g></g></g><g fill="#fbc3d4" fill-opacity="1"><g transform="translate(70.129403, 253.417471)"><g><path d="M 50.457031 -40.75 L 46.199219 -36.867188 C 51.496094 -34.515625 60.578125 -27.726562 62.238281 -25.90625 C 63.808594 -24.1875 63.878906 -22.761719 61.296875 -20.40625 L 17.664062 19.375 L 21.15625 23.203125 L 64.785156 -16.578125 C 67.367188 -18.933594 68.78125 -18.730469 70.351562 -17.011719 C 72.007812 -15.191406 77.929688 -5.523438 79.785156 -0.03125 L 84.042969 -3.914062 Z M 50.457031 -40.75 "/></g></g></g><g fill="#fbc3d4" fill-opacity="1"><g transform="translate(153.75133, 317.392151)"><g><path d="M 4.199219 -13.476562 C 3.78125 -4.617188 14.359375 1.972656 30.203125 2.722656 C 43.136719 3.332031 56.421875 -2.132812 57.046875 -15.324219 C 58.308594 -42.097656 10.582031 -30.609375 11.421875 -48.394531 C 11.910156 -58.675781 19.933594 -63.871094 32.152344 -63.292969 C 42.890625 -62.785156 52.402344 -57.023438 53.855469 -47.945312 C 55.761719 -48.503906 56.546875 -50.085938 56.640625 -52.089844 C 57.03125 -60.304688 43.597656 -64.050781 33.3125 -64.535156 C 21.222656 -65.105469 7.414062 -60.898438 6.816406 -48.289062 C 5.605469 -22.613281 53.445312 -37.917969 52.304688 -13.734375 C 51.800781 -3.0625 41.453125 1.957031 30.265625 1.429688 C 18.882812 0.890625 8.871094 -6.710938 9.203125 -13.695312 C 9.296875 -15.699219 10.085938 -17.28125 11.988281 -17.839844 C 11.121094 -18.660156 10.167969 -19.027344 9.261719 -19.070312 C 6.738281 -19.191406 4.363281 -16.90625 4.199219 -13.476562 Z M 4.199219 -13.476562 "/></g></g></g><g fill="#ffde59" fill-opacity="1"><g transform="translate(231.343667, 315.68683)"><g><path d="M -27.535156 -58.820312 L 4.5 -2.5625 L 9 -5.125 L -4.773438 -29.316406 L 16.601562 -41.492188 C 30.949219 -49.660156 28.230469 -61.894531 25.023438 -67.519531 C 21.820312 -73.144531 12.6875 -81.726562 -1.65625 -73.558594 Z M -7.015625 -33.253906 L -20.214844 -56.433594 C -21.945312 -59.46875 -21.4375 -60.804688 -19.414062 -61.957031 C -17.050781 -63.300781 -10.445312 -67.136719 -6 -69.667969 C 5.25 -76.078125 14.457031 -73.644531 19.679688 -64.476562 C 24.902344 -55.304688 22.261719 -46.203125 11.011719 -39.796875 L -2.601562 -32.042969 C -4.289062 -31.082031 -6.054688 -31.566406 -7.015625 -33.253906 Z M -7.015625 -33.253906 "/></g></g></g><g fill="#ffde59" fill-opacity="1"><g transform="translate(295.211584, 273.152383)"><g><path d="M 3.34375 -6.140625 L -5.644531 -14.945312 C -7.183594 -16.449219 -8.886719 -19.144531 -9.113281 -20.890625 C -9.703125 -25.488281 -8.890625 -29.691406 -6.90625 -33.328125 C -3.40625 -39.75 5.046875 -46.203125 12.820312 -45.582031 L 24.347656 -44.683594 L 27.070312 -49.6875 L -43.59375 -55.304688 L -46.316406 -50.304688 L -42.996094 -50.042969 L 0.621094 -1.136719 Z M -14.824219 -24.074219 L -38.507812 -47.449219 C -39.265625 -48.230469 -39.53125 -48.820312 -39.316406 -49.214844 C -39.128906 -49.558594 -38.515625 -49.738281 -37.535156 -49.644531 L 3.316406 -46.410156 C 5.222656 -46.253906 5.320312 -45.757812 3.527344 -45.039062 C -2.351562 -42.640625 -7.882812 -38.578125 -10.792969 -33.234375 C -12.15625 -30.730469 -12.917969 -27.976562 -12.90625 -25.023438 C -12.933594 -24.296875 -12.980469 -23.808594 -13.132812 -23.523438 C -13.414062 -23.011719 -13.957031 -23.234375 -14.824219 -24.074219 Z M -14.824219 -24.074219 "/></g></g></g><g fill="#fa4d1d" fill-opacity="1"><g transform="translate(327.354537, 204.673558)"><g><path d="M -32.523438 -0.75 C -12.382812 -2.296875 -0.0664062 -17.785156 -1.429688 -35.539062 C -2.273438 -46.574219 -6.507812 -56.898438 -11.527344 -59.695312 L -18.757812 -59.140625 C -11.273438 -54.714844 -3.496094 -45.574219 -2.71875 -35.4375 C -1.574219 -20.527344 -13.554688 -7.402344 -32.917969 -5.914062 C -52.285156 -4.429688 -66.125 -15.574219 -67.269531 -30.484375 C -68.117188 -41.523438 -61.222656 -51.53125 -54.066406 -53.054688 C -54.066406 -53.054688 -54.160156 -55.96875 -57.839844 -55.6875 C -66.167969 -55.050781 -69.457031 -42.070312 -68.558594 -30.386719 C -67.199219 -12.636719 -52.664062 0.792969 -32.523438 -0.75 Z M -32.523438 -0.75 "/></g></g></g><g fill="#fa4d1d" fill-opacity="1"><g transform="translate(314.605476, 124.038957)"><g><path d="M -3.09375 -4.15625 L -29.875 -40.148438 L -34.5 -36.707031 C -28.789062 -32.722656 -16.265625 -19.691406 -9.230469 -10.238281 C -7.839844 -8.367188 -7.910156 -6.945312 -10.714844 -4.855469 L -31.011719 10.164062 C -32.566406 11.324219 -34.066406 10.824219 -35.226562 9.269531 C -39.519531 3.503906 -47.027344 -9.953125 -50.082031 -17.203125 L -54.445312 -13.957031 L -36.4375 10.246094 C -35.277344 11.804688 -35.542969 13.617188 -37.101562 14.777344 L -53.511719 26.988281 C -56.316406 29.078125 -57.699219 28.734375 -59.09375 26.867188 C -66.125 17.414062 -75.015625 1.671875 -77.191406 -4.9375 L -81.8125 -1.5 L -55.03125 34.496094 Z M -3.09375 -4.15625 "/></g></g></g><g clip-path="url(#id1)"><path fill="#6a9ae8" d="M 252.875 165.363281 C 252.875 200.15625 224.671875 228.363281 189.875 228.363281 L 189.875 199.597656 C 208.773438 199.597656 224.085938 184.296875 224.113281 165.414062 Z M 252.875 165.363281 " fill-opacity="1" fill-rule="nonzero"/></g><g fill="#ffffff" fill-opacity="1"><g transform="translate(163.315658, 155.491353)"><g><path d="M 0.933594 -9.347656 C 0.933594 -3.515625 5.125 0.375 10.265625 0.375 C 13.460938 0.375 16.527344 -0.617188 17.445312 -2 L 17.445312 -10.132812 L 15.835938 -10.132812 L 15.835938 -3.90625 C 15.835938 -1.457031 12.320312 0 10.265625 0 C 5.945312 0 2.429688 -3.738281 2.429688 -9.347656 C 2.429688 -14.957031 5.945312 -18.699219 10.265625 -18.699219 C 13.460938 -18.699219 16.191406 -16.492188 16.472656 -14.398438 C 16.472656 -14.398438 17.3125 -14.359375 17.3125 -15.425781 C 17.3125 -17.835938 13.648438 -19.070312 10.265625 -19.070312 C 5.125 -19.070312 0.933594 -15.183594 0.933594 -9.347656 Z M 0.933594 -9.347656 "/></g></g></g><g fill="#ffffff" fill-opacity="1"><g transform="translate(182.100539, 155.491353)"><g><path d="M 2.28125 0 C 3.589844 0 3.589844 -1.964844 2.28125 -1.964844 C 0.972656 -1.964844 0.992188 0 2.28125 0 Z M 2.28125 0 "/></g></g></g><g fill="#ffffff" fill-opacity="1"><g transform="translate(186.661249, 155.491353)"><g><path d="M 1.027344 -3.945312 C 1.027344 -1.382812 4.167969 0.375 8.75 0.375 C 12.488281 0.375 16.25 -1.382812 16.25 -5.199219 C 16.25 -12.9375 2.636719 -8.976562 2.636719 -14.117188 C 2.636719 -17.089844 4.878906 -18.699219 8.414062 -18.699219 C 11.519531 -18.699219 14.339844 -17.164062 14.882812 -14.566406 C 15.425781 -14.753906 15.632812 -15.21875 15.632812 -15.800781 C 15.632812 -18.175781 11.703125 -19.070312 8.730469 -19.070312 C 5.234375 -19.070312 1.308594 -17.667969 1.308594 -14.023438 C 1.308594 -6.601562 14.902344 -11.667969 14.902344 -4.675781 C 14.902344 -1.589844 11.984375 0 8.75 0 C 5.460938 0 2.46875 -2.058594 2.46875 -4.074219 C 2.46875 -4.65625 2.671875 -5.125 3.214844 -5.308594 C 2.953125 -5.535156 2.671875 -5.628906 2.410156 -5.628906 C 1.683594 -5.628906 1.027344 -4.9375 1.027344 -3.945312 Z M 1.027344 -3.945312 "/></g></g></g><g clip-path="url(#id2)"><path fill="#fa4d1d" d="M 183.519531 215.492188 L 148.269531 215.492188 C 148.269531 196.03125 164.050781 180.242188 183.519531 180.242188 Z M 183.519531 215.492188 " fill-opacity="1" fill-rule="nonzero"/></g></svg>